<svg width="234" height="100" viewBox="0 0 234 100" fill="none" xmlns="http://www.w3.org/2000/svg">
<path fill-rule="evenodd" clip-rule="evenodd" d="M75.0816 17.8262H30.5C13.6553 17.8262 0 31.4815 0 48.3262C0 65.1709 13.6553 78.8262 30.5 78.8262H75.0816V77.8262H30.5C14.2076 77.8262 1 64.6186 1 48.3262C1 32.0338 14.2076 18.8262 30.5 18.8262H75.0816V17.8262ZM160.531 77.8262H203.5C219.792 77.8262 233 64.6186 233 48.3262C233 32.0338 219.792 18.8262 203.5 18.8262H160.531V17.8262H203.5C220.345 17.8262 234 31.4815 234 48.3262C234 65.1709 220.345 78.8262 203.5 78.8262H160.531V77.8262Z" fill="#0C0B10"/>
<path d="M116.267 0.826172L113.885 5.34017L111.58 9.85418C113.232 13.0236 114.692 15.7704 116.325 18.8822L121.069 9.85418L118.63 5.34017L116.267 0.826172Z" fill="#0C0B10"/>
<path d="M140.438 16.2124L140.207 16.078L139.977 15.9243L139.727 15.7899L139.497 15.6362L139.247 15.5017L139.016 15.3673L138.786 15.2328L138.536 15.0984L138.287 14.9639L138.056 14.8486L137.806 14.7142L137.557 14.5797L137.326 14.4453L137.076 14.33L136.827 14.1956L136.577 14.0803L136.327 13.9651L136.078 13.8498L135.828 13.7153L135.693 13.6577L133.484 18.4791L133.58 18.5175L133.811 18.6135L134.022 18.7288L134.253 18.844L134.464 18.9401L134.675 19.0553L134.906 19.1706L135.117 19.2858L135.328 19.3819L135.54 19.4971L135.77 19.6316L135.981 19.7468L136.193 19.8621L136.404 19.9773L136.615 20.0926L136.827 20.227L137.038 20.3423L137.249 20.4575L137.461 20.592L137.672 20.7264L137.864 20.8417L140.63 16.3277L140.438 16.2124Z" fill="#0C0B10"/>
<path d="M130.119 11.506L129.85 11.4292L129.581 11.3524L129.312 11.2563L129.043 11.1795L128.774 11.1219L128.486 11.045L128.217 10.9682L127.948 10.8914L127.68 10.8337L127.391 10.7569L127.123 10.6801L126.854 10.6225L126.565 10.5648L126.297 10.5072L126.008 10.4304L125.739 10.3727L125.451 10.3343L125.182 10.2767L125.029 10.2383L124.068 15.4438L124.184 15.463L124.433 15.5206L124.683 15.559L124.914 15.6167L125.163 15.6743L125.413 15.7319L125.663 15.7895L125.893 15.8472L126.143 15.8856L126.393 15.9624L126.623 16.02L126.873 16.0777L127.123 16.1545L127.353 16.2121L127.584 16.2698L127.833 16.3466L128.064 16.4234L128.313 16.481L128.544 16.5579L128.794 16.6347L128.89 16.6731L130.484 11.6213L130.388 11.6021L130.119 11.506Z" fill="#0C0B10"/>
<path d="M107.504 10.2189L107.216 10.2765L106.928 10.3342L106.659 10.3726L106.371 10.4302L106.102 10.507L105.814 10.5647L105.545 10.6223L105.257 10.6799L104.988 10.7568L104.719 10.8336L104.45 10.8912L104.162 10.968L103.893 11.0449L103.624 11.1217L103.355 11.1793L103.086 11.2562L102.817 11.3522L102.529 11.4291L102.279 11.5059L102.164 11.5443L103.758 16.5961L103.835 16.5577L104.085 16.4809L104.315 16.4233L104.546 16.3464L104.796 16.2696L105.045 16.212L105.276 16.1543L105.526 16.0775L105.756 16.0199L106.006 15.9623L106.236 15.8854L106.486 15.847L106.736 15.7894L106.985 15.7318L107.216 15.6741L107.466 15.6165L107.715 15.5589L107.965 15.5205L108.215 15.4628L108.445 15.4244L108.58 15.4052L107.619 10.1997L107.504 10.2189Z" fill="#0C0B10"/>
<path d="M96.8405 13.5999L96.5908 13.7152L96.3411 13.8497L96.0914 13.9649L95.8417 14.0802L95.592 14.1954L95.3423 14.3299L95.0926 14.4451L94.8429 14.5796L94.6124 14.714L94.3626 14.8485L94.1129 14.9637L93.8824 15.0982L93.6327 15.2327L93.4022 15.3671L93.1525 15.5016L92.922 15.636L92.6723 15.7897L92.4418 15.9242L92.2113 16.0778L92 16.1931L94.7852 20.7071L94.9581 20.5918L95.1694 20.4574L95.3615 20.3421L95.5728 20.2269L95.7841 20.0924L95.9954 19.9772L96.2259 19.8619L96.4372 19.7467L96.6485 19.6314L96.8598 19.497L97.071 19.3817L97.2823 19.2857L97.5128 19.1704L97.7241 19.0552L97.9354 18.9399L98.1659 18.8439L98.3772 18.7286L98.6077 18.6134L98.819 18.5173L99.0495 18.4213L99.1648 18.3637L96.9558 13.5615L96.8405 13.5999Z" fill="#0C0B10"/>
<path d="M116.921 99.583L115.164 96.2525L113.463 92.922C114.682 90.5835 115.759 88.5569 116.963 86.261L120.464 92.922L118.664 96.2525L116.921 99.583Z" fill="#0C0B10"/>
<path d="M134.566 88.2308L134.396 88.33L134.226 88.4434L134.042 88.5426L133.872 88.656L133.687 88.7552L133.517 88.8544L133.347 88.9536L133.163 89.0528L132.979 89.152L132.809 89.237L132.624 89.3362L132.44 89.4354L132.27 89.5347L132.086 89.6197L131.902 89.7189L131.717 89.8039L131.533 89.889L131.349 89.974L131.165 90.0732L131.065 90.1157L129.436 86.5585L129.506 86.5301L129.676 86.4592L129.832 86.3742L130.002 86.2892L130.158 86.2183L130.314 86.1333L130.484 86.0482L130.64 85.9632L130.796 85.8924L130.952 85.8073L131.122 85.7081L131.278 85.6231L131.434 85.538L131.59 85.453L131.746 85.368L131.902 85.2688L132.057 85.1837L132.213 85.0987L132.369 84.9995L132.525 84.9003L132.667 84.8153L134.708 88.1458L134.566 88.2308Z" fill="#0C0B10"/>
<path d="M126.941 91.7033L126.742 91.76L126.544 91.8167L126.346 91.8875L126.147 91.9442L125.949 91.9867L125.736 92.0434L125.538 92.1001L125.339 92.1568L125.141 92.1993L124.928 92.256L124.73 92.3127L124.532 92.3552L124.319 92.3977L124.121 92.4403L123.908 92.4969L123.71 92.5395L123.497 92.5678L123.299 92.6103L123.185 92.6387L122.477 88.798L122.562 88.7838L122.746 88.7413L122.93 88.7129L123.1 88.6704L123.284 88.6279L123.469 88.5854L123.653 88.5429L123.823 88.5003L124.007 88.472L124.191 88.4153L124.361 88.3728L124.546 88.3303L124.73 88.2736L124.9 88.2311L125.07 88.1885L125.254 88.1319L125.424 88.0752L125.609 88.0326L125.779 87.976L125.963 87.9193L126.034 87.8909L127.21 91.6183L127.139 91.6324L126.941 91.7033Z" fill="#0C0B10"/>
<path d="M110.756 92.6528L110.544 92.6103L110.331 92.5678L110.133 92.5394L109.92 92.4969L109.722 92.4402L109.509 92.3977L109.311 92.3552L109.098 92.3127L108.9 92.256L108.701 92.1993L108.503 92.1568L108.29 92.1001L108.092 92.0434L107.894 91.9867L107.695 91.9442L107.497 91.8875L107.298 91.8166L107.086 91.76L106.901 91.7033L106.816 91.6749L107.993 87.9476L108.049 87.9759L108.234 88.0326L108.404 88.0751L108.574 88.1318L108.758 88.1885L108.942 88.231L109.112 88.2736L109.297 88.3302L109.467 88.3728L109.651 88.4153L109.821 88.472L110.005 88.5003L110.189 88.5428L110.374 88.5853L110.544 88.6279L110.728 88.6704L110.912 88.7129L111.096 88.7412L111.281 88.7838L111.451 88.8121L111.55 88.8263L110.841 92.667L110.756 92.6528Z" fill="#0C0B10"/>
<path d="M102.862 90.1587L102.678 90.0736L102.494 89.9744L102.31 89.8894L102.125 89.8044L101.941 89.7193L101.757 89.6201L101.573 89.5351L101.389 89.4359L101.218 89.3367L101.034 89.2375L100.85 89.1524L100.68 89.0532L100.496 88.954L100.326 88.8548L100.141 88.7556L99.9713 88.6564L99.787 88.543L99.617 88.4438L99.4469 88.3304L99.291 88.2454L101.346 84.9149L101.474 84.9999L101.629 85.0991L101.771 85.1842L101.927 85.2692L102.083 85.3684L102.239 85.4534L102.409 85.5385L102.565 85.6235L102.721 85.7085L102.877 85.8077L103.033 85.8928L103.188 85.9636L103.358 86.0487L103.514 86.1337L103.67 86.2187L103.84 86.2896L103.996 86.3746L104.166 86.4597L104.322 86.5305L104.492 86.6014L104.577 86.6439L102.947 90.187L102.862 90.1587Z" fill="#0C0B10"/>
</svg>
