<svg width="52" height="40" viewBox="0 0 52 40" fill="none" xmlns="http://www.w3.org/2000/svg">
<path d="M6.00709 34.7235C2.94151 34.4107 1.44 32.221 1.12719 29.218C0.626684 24.1504 1.50256 26.0273 5.56915 24.4632C12.6388 21.773 17.0182 18.2069 25.1513 19.6459C30.8446 20.6469 35.5993 24.0253 40.9172 25.7145C43.4823 26.5278 48.7375 26.5278 50.3016 29.218C52.3662 32.7841 49.4883 34.2856 46.4227 34.6609" stroke="#79655E" stroke-width="2" stroke-miterlimit="10" stroke-linecap="round" stroke-linejoin="round"/>
<path d="M18.832 35.1611H33.5969" stroke="#79655E" stroke-width="2" stroke-miterlimit="10" stroke-linecap="round" stroke-linejoin="round"/>
<path d="M47.9858 30.3441C47.7981 30.3441 47.5479 30.3441 47.2976 30.2815C45.4833 30.0939 45.1079 29.7185 44.6074 28.78" stroke="#79655E" stroke-width="2" stroke-miterlimit="10" stroke-linecap="round" stroke-linejoin="round"/>
<path d="M16.2049 34.1603C16.2049 32.0332 14.5157 30.344 12.3886 30.344C10.2615 30.344 8.57227 32.0332 8.57227 34.1603C8.57227 36.2875 10.2615 37.9767 12.3886 37.9767C14.4532 37.9141 16.2049 36.2249 16.2049 34.1603Z" stroke="#79655E" stroke-width="2" stroke-miterlimit="10" stroke-linecap="round" stroke-linejoin="round"/>
<path d="M43.7323 34.1603C43.7323 32.0332 42.0431 30.344 39.9159 30.344C37.7888 30.344 36.0996 32.0332 36.0996 34.1603C36.0996 36.2875 37.7888 37.9767 39.9159 37.9767C42.0431 37.9141 43.7323 36.2249 43.7323 34.1603Z" stroke="#79655E" stroke-width="2" stroke-miterlimit="10" stroke-linecap="round" stroke-linejoin="round"/>
<path d="M5.13171 29.4681C3.75533 30.0311 3.19226 29.2178 3.44252 27.6538C3.50508 27.5286 3.6302 27.4661 3.75533 27.4661H6.38297C6.57066 27.4661 6.69579 27.5912 6.63322 27.7789C6.63322 27.8414 6.63322 27.904 6.57066 27.9666C6.38297 28.5296 5.75734 29.2178 5.13171 29.4681Z" stroke="#79655E" stroke-width="2" stroke-miterlimit="10" stroke-linecap="round" stroke-linejoin="round"/>
<path d="M22.4617 25.7142L34.3486 26.5275C34.724 26.5275 34.8491 26.027 34.4738 25.8393C33.7856 25.5265 33.0348 25.1511 32.4718 24.9008C29.9692 23.6496 28.0298 22.8363 25.0268 22.1481C24.0258 21.8978 21.8986 21.7727 21.7109 21.7727L22.4617 25.7142Z" stroke="#79655E" stroke-width="2" stroke-miterlimit="10" stroke-linecap="round" stroke-linejoin="round"/>
<path d="M19.2078 21.9607C17.5811 22.2109 16.0171 22.7114 14.453 23.3371C14.2653 23.3996 13.5146 23.775 12.7638 24.0878C12.2007 24.3381 12.3884 25.1514 12.9515 25.214L19.7083 25.6519L19.2078 21.9607Z" stroke="#79655E" stroke-width="2" stroke-miterlimit="10" stroke-linecap="round" stroke-linejoin="round"/>
<path d="M3.12891 38.4146H48.1742" stroke="#79655E" stroke-width="2" stroke-miterlimit="10" stroke-linecap="round" stroke-linejoin="round"/>
<path d="M2.50391 19.6455H7.50894" stroke="#79655E" stroke-width="2" stroke-miterlimit="10" stroke-linecap="round" stroke-linejoin="round"/>
<path d="M8.13477 15.8921H11.8885" stroke="#79655E" stroke-width="2" stroke-miterlimit="10" stroke-linecap="round" stroke-linejoin="round"/>
<path d="M26 6.74652L33.1637 16.0151L44.7689 1" stroke="#79655E" stroke-width="2" stroke-miterlimit="10" stroke-linecap="round" stroke-linejoin="round"/>
</svg>
